<?xml version="1.0" encoding="UTF-8"?> <svg xmlns="http://www.w3.org/2000/svg" width="39" height="39" viewBox="0 0 39 39" fill="none"><path d="M19.5 26.2054C26.4017 26.2054 31.9966 20.5949 31.9966 13.674C31.9966 6.75308 26.4017 1.14258 19.5 1.14258C12.5983 1.14258 7.00342 6.75308 7.00342 13.674C7.00342 20.5949 12.5983 26.2054 19.5 26.2054Z" stroke="#D83232" stroke-width="2.28516" stroke-miterlimit="10" stroke-linecap="round" stroke-linejoin="round"></path><path d="M9.21482 20.7923L4.6001 34.1808L10.6951 34.1444L15.2642 37.8574L19.2804 26.2054M29.7849 20.7923L34.3996 34.1808L28.3046 34.1444L23.7355 37.8574L19.7186 26.2034M17.23 13.0985C19.2611 10.0121 19.1731 7.61162 19.1447 7.23625C19.1442 7.22968 19.145 7.22307 19.1472 7.21686C19.1494 7.21064 19.1529 7.20494 19.1574 7.20013C19.1619 7.19532 19.1673 7.1915 19.1734 7.1889C19.1795 7.18631 19.186 7.185 19.1926 7.18506H19.9663C21.4983 7.18506 22.6915 8.51456 22.5263 10.0377L22.4015 11.1883H24.2562C25.1589 11.1883 25.8593 11.9762 25.7534 12.8727L25.1976 17.5843C25.1081 18.3434 24.4647 18.9154 23.7003 18.9154H13.2356V13.0985H17.23ZM17.23 13.0985L17.2301 18.9153" stroke="#D83232" stroke-width="2.28516" stroke-miterlimit="10" stroke-linecap="round" stroke-linejoin="round"></path></svg> 