<?xml version="1.0" encoding="UTF-8"?> <svg xmlns="http://www.w3.org/2000/svg" width="39" height="39" viewBox="0 0 39 39" fill="none"><g clip-path="url(#clip0_94_51)"><path d="M1.52344 9.14063H17.6719M1.52344 1.52344V18.2051M37.4766 1.52344V18.2051M17.9004 3.58008C16.1426 3.58008 14.4124 3.08291 12.953 2.10319C12.3363 1.68927 11.5779 1.47028 10.7659 1.53449C9.02477 1.67221 7.68597 3.07232 7.6197 4.81765H7.62023C7.53134 7.15803 9.40227 9.14063 11.7229 9.14063M21.4805 18.2813H11.2304C8.72823 18.2813 6.4804 19.8108 5.56199 22.1383L1.82272 31.6145C1.62498 32.1157 1.52344 32.6497 1.52344 33.1885C1.52344 35.5567 3.44327 37.4766 5.81153 37.4766H33.1885C35.5567 37.4766 37.4766 35.5567 37.4766 33.1885C37.4766 32.6497 37.375 32.1157 37.1773 31.6145L32.6777 20.1856M22.5469 24.2988L22.9277 31.3828M28.2598 24.2988L29.5547 31.3828M16.3008 31.3828L16.6816 24.2988M9.67383 31.3828L10.9688 24.2988M27.5801 17.0625V14.2441M31.3828 12.2637V3.04688C31.3828 2.20549 30.7008 1.52344 29.8594 1.52344H25.2891C24.4477 1.52344 23.7656 2.20549 23.7656 3.04688V12.2637C23.7656 13.1051 24.4477 13.7871 25.2891 13.7871H29.8594C30.7008 13.7871 31.3828 13.1051 31.3828 12.2637Z" stroke="#D83232" stroke-width="3.04688" stroke-miterlimit="10" stroke-linecap="round" stroke-linejoin="round"></path></g><defs><clipPath id="clip0_94_51"><rect width="39" height="39" fill="white"></rect></clipPath></defs></svg> 