<?xml version="1.0" encoding="UTF-8"?> <svg xmlns="http://www.w3.org/2000/svg" width="40" height="40" viewBox="0 0 40 40" fill="none"><path d="M19.9998 1.66669C16.3739 1.66669 12.8293 2.74192 9.81439 4.75641C6.79949 6.7709 4.44966 9.63418 3.06205 12.9842C1.67445 16.3341 1.31139 20.0204 2.01878 23.5767C2.72618 27.133 4.47226 30.3997 7.03622 32.9636C9.60018 35.5276 12.8669 37.2737 16.4232 37.9811C19.9795 38.6885 23.6657 38.3254 27.0157 36.9378C30.3657 35.5502 33.229 33.2004 35.2435 30.1855C37.2579 27.1706 38.3332 23.626 38.3332 20C38.3274 15.1395 36.3941 10.4797 32.9571 7.04273C29.5202 3.60581 24.8604 1.67242 19.9998 1.66669ZM19.9998 35C17.0331 35 14.133 34.1203 11.6663 32.4721C9.19955 30.8238 7.27697 28.4812 6.14165 25.7403C5.00634 22.9994 4.70929 19.9834 5.28807 17.0737C5.86684 14.164 7.29546 11.4912 9.39324 9.39342C11.491 7.29563 14.1638 5.86702 17.0735 5.28824C19.9832 4.70946 22.9992 5.00651 25.7401 6.14183C28.481 7.27714 30.8237 9.19973 32.4719 11.6665C34.1201 14.1332 34.9998 17.0333 34.9998 20C34.995 23.9768 33.4131 27.7893 30.6011 30.6013C27.7891 33.4133 23.9766 34.9952 19.9998 35Z" fill="#D83232"></path><path d="M21.6663 19.31V10C21.6663 9.55801 21.4907 9.13409 21.1782 8.82153C20.8656 8.50897 20.4417 8.33337 19.9997 8.33337C19.5576 8.33337 19.1337 8.50897 18.8212 8.82153C18.5086 9.13409 18.333 9.55801 18.333 10V20C18.3331 20.442 18.5088 20.8659 18.8213 21.1784L23.8213 26.1784C24.1357 26.482 24.5567 26.65 24.9937 26.6462C25.4307 26.6424 25.8487 26.4671 26.1577 26.1581C26.4667 25.8491 26.642 25.431 26.6458 24.994C26.6496 24.557 26.4816 24.136 26.178 23.8217L21.6663 19.31Z" fill="#D83232"></path></svg> 