<?xml version="1.0" encoding="UTF-8"?> <svg xmlns="http://www.w3.org/2000/svg" width="40" height="40" viewBox="0 0 40 40" fill="none"><path d="M30.2103 23.7815C27.4301 23.7815 25.1683 26.0433 25.1683 28.8235C25.1683 31.6037 27.4301 33.8655 30.2103 33.8655C32.991 33.8655 35.2523 31.6037 35.2523 28.8235C35.2523 26.0433 32.9905 23.7815 30.2103 23.7815ZM30.2103 31.3445C28.82 31.3445 27.6893 30.2138 27.6893 28.8235C27.6893 27.4332 28.82 26.3025 30.2103 26.3025C31.6006 26.3025 32.7313 27.4332 32.7313 28.8235C32.7313 30.2139 31.6006 31.3445 30.2103 31.3445ZM12.9834 23.7815C10.2032 23.7815 7.94141 26.0433 7.94141 28.8235C7.94141 31.6037 10.2032 33.8655 12.9834 33.8655C15.7637 33.8655 18.0255 31.6037 18.0255 28.8235C18.0255 26.0433 15.7637 23.7815 12.9834 23.7815ZM12.9834 31.3445C11.5931 31.3445 10.4624 30.2138 10.4624 28.8235C10.4624 27.4332 11.5931 26.3025 12.9834 26.3025C14.3734 26.3025 15.5045 27.4332 15.5045 28.8235C15.5045 30.2139 14.3737 31.3445 12.9834 31.3445ZM33.6057 9.3496C33.5007 9.14091 33.3397 8.9655 33.1408 8.84293C32.9419 8.72037 32.7129 8.65546 32.4792 8.65546H25.8405V11.1765H31.7019L35.1342 18.0033L37.3872 16.8705L33.6057 9.3496Z" fill="#D83232"></path><path d="M16.8908 27.6051H26.4286V30.1261H16.8908V27.6051ZM9.20164 27.6051H4.83195C4.1357 27.6051 3.57148 28.1694 3.57148 28.8656C3.57148 29.5618 4.13578 30.126 4.83195 30.126H9.20172C9.89797 30.126 10.4622 29.5617 10.4622 28.8656C10.4622 28.1693 9.89789 27.6051 9.20164 27.6051ZM39.7353 19.8991L37.2559 16.7059C37.1382 16.554 36.9873 16.4312 36.8148 16.3467C36.6422 16.2622 36.4527 16.2183 36.2605 16.2184H27.1009V7.39493C27.1009 6.69868 26.5366 6.13446 25.8404 6.13446H4.83195C4.1357 6.13446 3.57148 6.69876 3.57148 7.39493C3.57148 8.0911 4.13578 8.6554 4.83195 8.6554H24.5798V17.4789C24.5798 18.1752 25.1441 18.7394 25.8403 18.7394H35.6433L37.479 21.1041V27.6049H33.9916C33.2953 27.6049 32.7311 28.1692 32.7311 28.8654C32.7311 29.5616 33.2954 30.1259 33.9916 30.1259H38.7395C39.4357 30.1259 39.9999 29.5616 40 28.8654V20.6723C40 20.3924 39.9067 20.1202 39.7353 19.8991ZM9.11766 21.2185H3.3193C2.62305 21.2185 2.05883 21.7828 2.05883 22.479C2.05883 23.1752 2.62312 23.7395 3.3193 23.7395H9.11758C9.81383 23.7395 10.378 23.1752 10.378 22.479C10.3781 21.7828 9.81383 21.2185 9.11766 21.2185ZM12.0168 16.2605H1.26047C0.564297 16.2605 0 16.8248 0 17.521C0 18.2173 0.564297 18.7815 1.26047 18.7815H12.0168C12.713 18.7815 13.2773 18.2172 13.2773 17.521C13.2773 16.8248 12.713 16.2605 12.0168 16.2605Z" fill="#D83232"></path><path d="M14.0754 11.3025H3.31906C2.62281 11.3025 2.05859 11.8668 2.05859 12.563C2.05859 13.2592 2.62289 13.8234 3.31906 13.8234H14.0754C14.7716 13.8234 15.3359 13.2591 15.3359 12.563C15.3359 11.8668 14.7716 11.3025 14.0754 11.3025Z" fill="#D83232"></path></svg> 