<?xml version="1.0" encoding="UTF-8"?> <svg xmlns="http://www.w3.org/2000/svg" width="20" height="20" viewBox="0 0 20 20" fill="none"><path d="M12.9582 10.8301L11.2832 12.5108C10.6039 13.1924 9.40875 13.2071 8.7148 12.5108L7.03969 10.8301L1.02344 16.8659C1.24738 16.9694 1.4943 17.0312 1.7568 17.0312H18.2412C18.5037 17.0312 18.7505 16.9695 18.9744 16.8659L12.9582 10.8301Z" fill="white"></path><path d="M18.2422 2.96875H1.75781C1.49531 2.96875 1.2484 3.03055 1.02453 3.1341L7.45332 9.58422C7.45375 9.58465 7.45426 9.58473 7.45469 9.58516C7.45495 9.58544 7.45513 9.58579 7.4552 9.58617L9.54555 11.6834C9.76758 11.9055 10.2325 11.9055 10.4545 11.6834L12.5445 9.58652C12.5445 9.58652 12.545 9.58559 12.5454 9.58516C12.5454 9.58516 12.5463 9.58465 12.5468 9.58422L18.9754 3.13406C18.7515 3.03047 18.5047 2.96875 18.2422 2.96875ZM0.186953 3.95359C0.0710937 4.18789 0 4.44797 0 4.72656V15.2734C0 15.552 0.0710156 15.8121 0.186914 16.0464L6.21359 10.0002L0.186953 3.95359ZM19.813 3.95352L13.7864 10.0002L19.813 16.0465C19.9289 15.8122 20 15.5521 20 15.2734V4.72656C20 4.44789 19.9289 4.18781 19.813 3.95352Z" fill="white"></path></svg> 