<?xml version="1.0" encoding="UTF-8"?> <svg xmlns="http://www.w3.org/2000/svg" width="25" height="25" viewBox="0 0 25 25" fill="none"><path d="M22.1305 17.5427C22.7058 17.5427 23.1722 17.0763 23.1722 16.501C23.1722 15.9257 22.7058 15.4594 22.1305 15.4594C21.5552 15.4594 21.0889 15.9257 21.0889 16.501C21.0889 17.0763 21.5552 17.5427 22.1305 17.5427Z" fill="#D83232"></path><path d="M19.8586 20.8979C20.4339 20.8979 20.9002 20.4315 20.9002 19.8562C20.9002 19.2809 20.4339 18.8146 19.8586 18.8146C19.2833 18.8146 18.8169 19.2809 18.8169 19.8562C18.8169 20.4315 19.2833 20.8979 19.8586 20.8979Z" fill="#D83232"></path><path d="M22.9137 13.5457C23.489 13.5457 23.9554 13.0794 23.9554 12.5041C23.9554 11.9288 23.489 11.4624 22.9137 11.4624C22.3384 11.4624 21.8721 11.9288 21.8721 12.5041C21.8721 13.0794 22.3384 13.5457 22.9137 13.5457Z" fill="#D83232"></path><path d="M16.4845 23.1739C17.0598 23.1739 17.5262 22.7075 17.5262 22.1322C17.5262 21.5569 17.0598 21.0906 16.4845 21.0906C15.9092 21.0906 15.4429 21.5569 15.4429 22.1322C15.4429 22.7075 15.9092 23.1739 16.4845 23.1739Z" fill="#D83232"></path><path d="M12.5002 21.875C10.9999 21.8768 9.52108 21.5185 8.18798 20.8302C6.85488 20.1419 5.70644 19.1437 4.83913 17.9195C3.97183 16.6953 3.411 15.2809 3.20376 13.795C2.99652 12.309 3.14893 10.7951 3.64817 9.3803C4.14742 7.9655 4.97892 6.69119 6.07283 5.66442C7.16673 4.63765 8.49108 3.8884 9.93462 3.47964C11.3782 3.07087 12.8987 3.01453 14.3685 3.31533C15.8384 3.61613 17.2145 4.2653 18.3814 5.20829H16.6669C16.3906 5.20829 16.1256 5.31804 15.9303 5.51339C15.7349 5.70874 15.6252 5.97369 15.6252 6.24996C15.6252 6.52623 15.7349 6.79118 15.9303 6.98653C16.1256 7.18188 16.3906 7.29163 16.6669 7.29163H20.8335C21.1098 7.29163 21.3747 7.18188 21.5701 6.98653C21.7654 6.79118 21.8752 6.52623 21.8752 6.24996V2.08329C21.8752 1.80703 21.7654 1.54207 21.5701 1.34672C21.3747 1.15137 21.1098 1.04163 20.8335 1.04163C20.5573 1.04163 20.2923 1.15137 20.097 1.34672C19.9016 1.54207 19.7919 1.80703 19.7919 2.08329V3.67808C18.3753 2.50699 16.6978 1.69399 14.9009 1.30777C13.104 0.921552 11.2405 0.973452 9.4679 1.45909C7.69529 1.94472 6.06558 2.84983 4.71643 4.09795C3.36729 5.34608 2.33833 6.90056 1.71648 8.6301C1.09463 10.3596 0.898153 12.2134 1.14364 14.0349C1.38912 15.8564 2.06936 17.592 3.1269 19.0952C4.18444 20.5984 5.58821 21.825 7.21964 22.6715C8.85108 23.5179 10.6623 23.9593 12.5002 23.9583C12.7765 23.9583 13.0414 23.8485 13.2368 23.6532C13.4321 23.4578 13.5419 23.1929 13.5419 22.9166C13.5419 22.6404 13.4321 22.3754 13.2368 22.1801C13.0414 21.9847 12.7765 21.875 12.5002 21.875Z" fill="#D83232"></path><path d="M16.3616 16.3614C16.5569 16.166 16.6666 15.9011 16.6666 15.6249C16.6666 15.3487 16.5569 15.0838 16.3616 14.8885L13.5418 12.0687V6.24992C13.5418 5.97365 13.4321 5.7087 13.2367 5.51335C13.0414 5.318 12.7764 5.20825 12.5002 5.20825C12.2239 5.20825 11.9589 5.318 11.7636 5.51335C11.5682 5.7087 11.4585 5.97365 11.4585 6.24992V12.4999C11.4586 12.7762 11.5683 13.0411 11.7637 13.2364L14.8887 16.3614C15.084 16.5567 15.3489 16.6664 15.6252 16.6664C15.9014 16.6664 16.1663 16.5567 16.3616 16.3614Z" fill="#D83232"></path></svg> 