<?xml version="1.0" encoding="UTF-8"?> <svg xmlns="http://www.w3.org/2000/svg" width="27" height="27" viewBox="0 0 27 27" fill="none"><path d="M20.3919 16.0525C18.5152 16.0525 16.9885 17.5792 16.9885 19.4558C16.9885 21.3325 18.5152 22.8592 20.3919 22.8592C22.2688 22.8592 23.7952 21.3325 23.7952 19.4558C23.7952 17.5792 22.2685 16.0525 20.3919 16.0525ZM20.3919 21.1575C19.4534 21.1575 18.6902 20.3943 18.6902 19.4558C18.6902 18.5174 19.4534 17.7542 20.3919 17.7542C21.3303 17.7542 22.0935 18.5174 22.0935 19.4558C22.0935 20.3944 21.3303 21.1575 20.3919 21.1575ZM8.76372 16.0525C6.88706 16.0525 5.36035 17.5792 5.36035 19.4558C5.36035 21.3325 6.88706 22.8592 8.76372 22.8592C10.6404 22.8592 12.1671 21.3325 12.1671 19.4558C12.1671 17.5792 10.6404 16.0525 8.76372 16.0525ZM8.76372 21.1575C7.82526 21.1575 7.06204 20.3943 7.06204 19.4558C7.06204 18.5174 7.82526 17.7542 8.76372 17.7542C9.70192 17.7542 10.4654 18.5174 10.4654 19.4558C10.4654 20.3944 9.70218 21.1575 8.76372 21.1575ZM22.6838 6.31095C22.6128 6.17009 22.5042 6.05169 22.3699 5.96895C22.2357 5.88622 22.0811 5.84241 21.9234 5.84241H17.4423V7.54409H21.3987L23.7155 12.1522L25.2363 11.3876L22.6838 6.31095Z" fill="#D83232"></path><path d="M11.4013 18.6334H17.8393V20.3351H11.4013V18.6334ZM6.21111 18.6334H3.26157C2.7916 18.6334 2.41075 19.0143 2.41075 19.4842C2.41075 19.9542 2.79165 20.3351 3.26157 20.3351H6.21116C6.68113 20.3351 7.06198 19.9542 7.06198 19.4842C7.06198 19.0143 6.68108 18.6334 6.21111 18.6334ZM26.8213 13.4319L25.1478 11.2764C25.0683 11.174 24.9664 11.091 24.85 11.034C24.7335 10.977 24.6055 10.9474 24.4759 10.9474H18.2931V4.99156C18.2931 4.52159 17.9122 4.14075 17.4423 4.14075H3.26157C2.7916 4.14075 2.41075 4.52165 2.41075 4.99156C2.41075 5.46148 2.79165 5.84238 3.26157 5.84238H16.5914V11.7983C16.5914 12.2682 16.9723 12.6491 17.4422 12.6491H24.0592L25.2983 14.2452V18.6333H22.9443C22.4743 18.6333 22.0935 19.0142 22.0935 19.4841C22.0935 19.9541 22.4744 20.3349 22.9443 20.3349H26.1491C26.6191 20.3349 26.9999 19.954 27 19.4841V13.9538C27 13.7649 26.937 13.5811 26.8213 13.4319ZM6.15442 14.3225H2.24053C1.77056 14.3225 1.38971 14.7034 1.38971 15.1733C1.38971 15.6433 1.77061 16.0241 2.24053 16.0241H6.15437C6.62433 16.0241 7.00518 15.6432 7.00518 15.1733C7.00523 14.7034 6.62433 14.3225 6.15442 14.3225ZM8.11134 10.9758H0.850816C0.3809 10.9758 0 11.3567 0 11.8267C0 12.2966 0.3809 12.6775 0.850816 12.6775H8.11134C8.58131 12.6775 8.96215 12.2966 8.96215 11.8267C8.96215 11.3568 8.58131 10.9758 8.11134 10.9758Z" fill="#D83232"></path><path d="M9.50099 7.62915H2.24046C1.7705 7.62915 1.38965 8.01005 1.38965 8.47997C1.38965 8.94994 1.77055 9.33078 2.24046 9.33078H9.50099C9.97096 9.33078 10.3518 8.94988 10.3518 8.47997C10.3519 8.01005 9.97096 7.62915 9.50099 7.62915Z" fill="#D83232"></path></svg> 