<?xml version="1.0" encoding="UTF-8"?> <svg xmlns="http://www.w3.org/2000/svg" width="24" height="25" viewBox="0 0 24 25" fill="none"><path d="M23.8409 10.1932C23.71 9.90949 23.5016 9.66976 23.2403 9.50233C22.979 9.33491 22.6757 9.24682 22.3665 9.24849H19.5025V3.63334C19.5015 2.67004 19.1231 1.74649 18.4504 1.06534C17.7778 0.384183 16.8657 0.00104916 15.9144 0H8.12222C7.17492 0.00240213 6.26679 0.383076 5.59499 1.05937C4.9232 1.73567 4.54197 2.653 4.53407 3.6122L4.50275 9.24849H1.63354C0.996802 9.24849 0.431831 9.61051 0.159132 10.1932C-0.113568 10.7758 -0.0313662 11.447 0.371811 11.9464L10.2334 24.1505C10.6678 24.6895 11.3124 25 12 25C12.6877 25 13.3322 24.6908 13.7667 24.1505L23.6283 11.9464C23.8254 11.7053 23.9502 11.412 23.9879 11.1013C24.0256 10.7906 23.9746 10.4754 23.8409 10.1932ZM12.2532 22.8953C12.0822 23.1067 11.9191 23.1067 11.7482 22.8953L2.32246 11.2303H5.47612C5.73476 11.2303 5.98287 11.1266 6.16625 10.942C6.34962 10.7573 6.45333 10.5066 6.45471 10.2447L6.49124 3.62409C6.49468 3.18801 6.6679 2.77091 6.97329 2.46341C7.27867 2.15591 7.69155 1.98285 8.12222 1.98182H15.9144C16.8134 1.98182 17.5454 2.72302 17.5454 3.63334V10.2394C17.5454 10.7864 17.9838 11.2303 18.5239 11.2303H21.6776L12.2519 22.8953H12.2532ZM9.39177 10.0505C9.39177 9.75 9.50965 9.46183 9.71948 9.24936C9.9293 9.03689 10.2139 8.91753 10.5106 8.91753C10.8074 8.91753 11.0919 9.03689 11.3018 9.24936C11.5116 9.46183 11.6295 9.75 11.6295 10.0505C11.6295 10.3509 11.5116 10.6391 11.3018 10.8516C11.0919 11.064 10.8074 11.1834 10.5106 11.1834C10.2139 11.1834 9.9293 11.064 9.71948 10.8516C9.50965 10.6391 9.39177 10.3509 9.39177 10.0505ZM14.7975 17.0344C14.7975 17.1832 14.7685 17.3305 14.7123 17.468C14.6561 17.6054 14.5737 17.7303 14.4698 17.8355C14.3659 17.9407 14.2425 18.0242 14.1068 18.0811C13.9711 18.138 13.8256 18.1673 13.6786 18.1673C13.5317 18.1673 13.3862 18.138 13.2505 18.0811C13.1147 18.0242 12.9914 17.9407 12.8875 17.8355C12.7836 17.7303 12.7012 17.6054 12.6449 17.468C12.5887 17.3305 12.5598 17.1832 12.5598 17.0344C12.5598 16.7339 12.6777 16.4458 12.8875 16.2333C13.0973 16.0208 13.3819 15.9015 13.6786 15.9015C13.9754 15.9015 14.26 16.0208 14.4698 16.2333C14.6796 16.4458 14.7975 16.7339 14.7975 17.0344ZM15.3285 10.2117C15.5075 10.4018 15.6046 10.6561 15.5985 10.9187C15.5924 11.1814 15.4836 11.4308 15.2959 11.6121L10.2542 16.4821C10.0723 16.6584 9.8301 16.7564 9.57836 16.7556C9.38283 16.7555 9.19182 16.6961 9.02994 16.5851C8.86807 16.474 8.74276 16.3164 8.67017 16.1326C8.59758 15.9488 8.58103 15.7471 8.62267 15.5537C8.66431 15.3602 8.76222 15.1839 8.90378 15.0473L13.9455 10.1786C14.1332 9.99738 14.3844 9.89904 14.6437 9.90523C14.9031 9.91143 15.1494 10.0216 15.3285 10.2117Z" fill="#D83232"></path></svg> 